<svg width="1200" height="900" viewBox="0 0 1200 900" fill="none" xmlns="http://www.w3.org/2000/svg">
  <defs>
    <linearGradient id="bg" x1="0" y1="0" x2="1" y2="1">
      <stop offset="0%" stop-color="#0f172a" />
      <stop offset="100%" stop-color="#155e75" />
    </linearGradient>
    <linearGradient id="card" x1="0" y1="0" x2="0" y2="1">
      <stop offset="0%" stop-color="#f8fafc" stop-opacity="0.95" />
      <stop offset="100%" stop-color="#e2e8f0" stop-opacity="0.9" />
    </linearGradient>
  </defs>

  <rect width="1200" height="900" fill="url(#bg)" />

  <circle cx="980" cy="130" r="190" fill="#22d3ee" fill-opacity="0.18" />
  <circle cx="180" cy="740" r="220" fill="#14b8a6" fill-opacity="0.22" />

  <rect x="90" y="110" width="1020" height="680" rx="36" fill="#0b1226" fill-opacity="0.68" stroke="#67e8f9" stroke-opacity="0.35" />

  <rect x="150" y="190" width="320" height="450" rx="24" fill="url(#card)" />
  <rect x="190" y="250" width="240" height="22" rx="11" fill="#0f766e" fill-opacity="0.85" />
  <rect x="190" y="288" width="200" height="16" rx="8" fill="#334155" fill-opacity="0.6" />
  <rect x="190" y="316" width="170" height="16" rx="8" fill="#334155" fill-opacity="0.45" />
  <rect x="190" y="365" width="240" height="150" rx="16" fill="#0f172a" fill-opacity="0.88" />
  <circle cx="250" cy="430" r="36" fill="#2dd4bf" fill-opacity="0.85" />
  <rect x="300" y="404" width="100" height="14" rx="7" fill="#cbd5e1" />
  <rect x="300" y="428" width="74" height="14" rx="7" fill="#94a3b8" />
  <rect x="190" y="548" width="120" height="36" rx="18" fill="#0d9488" />

  <rect x="520" y="210" width="520" height="250" rx="24" fill="#ffffff" fill-opacity="0.95" />
  <rect x="560" y="262" width="220" height="20" rx="10" fill="#0f766e" />
  <rect x="560" y="298" width="420" height="14" rx="7" fill="#64748b" />
  <rect x="560" y="324" width="380" height="14" rx="7" fill="#94a3b8" />
  <rect x="560" y="350" width="300" height="14" rx="7" fill="#cbd5e1" />

  <rect x="520" y="500" width="240" height="220" rx="20" fill="#f0fdfa" />
  <circle cx="640" cy="560" r="42" fill="#14b8a6" fill-opacity="0.28" />
  <rect x="570" y="626" width="140" height="12" rx="6" fill="#0f766e" />
  <rect x="590" y="648" width="100" height="12" rx="6" fill="#64748b" />

  <rect x="800" y="500" width="240" height="220" rx="20" fill="#ecfeff" />
  <path d="M850 640C875 595 930 560 990 545" stroke="#0e7490" stroke-width="12" stroke-linecap="round" />
  <circle cx="850" cy="640" r="22" fill="#0ea5e9" />
  <circle cx="990" cy="545" r="22" fill="#14b8a6" />
  <rect x="850" y="672" width="140" height="12" rx="6" fill="#0f766e" />
</svg>
